<svg xmlns="http://www.w3.org/2000/svg" width="731.67004" height="625.99672" viewBox="0 0 731.67004 625.99672" xmlns:xlink="http://www.w3.org/1999/xlink"><path id="uuid-2bd2c2d6-8138-42e8-baad-62d050d980e2-243" d="m376.76337,311.69684c2.62042,10.50058-.88501,20.35364-7.82874,22.00711-6.9437,1.6535-14.69479-5.51819-17.31467-16.02283-1.10635-4.18195-1.15591-8.56552-.14453-12.784l-10.51895-44.63046,21.86432-4.45937,8.04852,44.47118c2.88568,3.29129,4.90674,7.20667,5.89404,11.41837,0,0,0,.00003,0,0Z" fill="#fdadb0"/><g><polygon points="285.09476 566.89746 286.44183 596.14917 285.0928 604.24353 289.81448 613.68689 326.91345 617.73407 328.93704 600.19635 309.37576 590.07843 308.80716 573.55005 285.09476 566.89746" fill="#fdadb0"/><path d="m324.21533,610.98877l-2.02359,2.69812-38.85165-11.19604s1.75269,17.26678,1.75269,20.63947,64.08002,3.37262,73.72256,2.02356,6.54608-10.11792,6.54608-10.11792l-39.9877-18.92865-1.15842,14.88147h.00003Z" fill="#2f2e43"/></g><g><polygon points="188.43921 545.36505 180.3541 573.50946 176.48561 580.7464 177.93686 591.20416 211.78952 606.91113 219.31921 590.94342 204.0247 575.09747 213.6188 550.21924 188.43921 545.36505" fill="#fdadb0"/><path d="m211.39197,599.65723l-2.78062,1.90863-33.22536-23.04083s-3.86533,16.91962-4.94466,20.11487,59.63062,23.70258,69.19777,25.51038,9.43983-7.49084,9.43983-7.49084l-31.82701-30.73029-5.85995,13.72815h.00002l-.00002-.00006Z" fill="#2f2e43"/></g><polygon points="287.70996 83.9671 289.12659 106.97251 246.16866 109.15169 259.47134 78.84175 287.70996 83.9671" fill="#fdadb0"/><path d="m290.22263,103.53149c-11.5144,5.13574-29.93115,3.73068-50.80225,0l-3.26205,144.59672s65.2879,13.12622,87.73538-11.0934l-11.81445-118.14453-21.85663-15.3588s0,.00002,0,.00002Z" fill="#7d85c7"/><polygon points="316.80505 240.57915 224.63489 249.689 179.1496 558.53558 214.00221 558.53558 273.68228 346.90921 278.40808 586.74255 310.3071 586.74255 337.48035 293.15347 316.80505 240.57915" fill="#2f2e43"/><path d="m252.52422,94.67065l-30.96834,18.32601c-11.73149,6.9423-17.26108,20.9566-13.43071,34.03909l23.9342,81.74651s-38.97484,66.95746-26.31018,72.86465c28.4593,13.27441,70.92659,10.04227,70.92659,10.04227l-9.49146-160.30917-14.66013-56.70937.00002.00002s0-.00002,0-.00002Z" fill="#e0e1e2"/><path d="m288.87726,102.92358l35.01645,13.60382,8.27011,101.01359,23.16013,81.37585c-39.22784,14.31915-35.56531,7.64648-35.56531,7.64648l-6.49796-140.41524-24.38345-63.22452.00003.00002s0-.00002,0-.00002Z" fill="#e0e1e2"/><path d="m340.03061,297.19608l-.11996-.5528-35.79376-165.55103c-1.00015-4.62562.2789-9.2623,3.50848-12.72181,3.22968-3.46,7.76883-5.05348,12.453-4.37245,5.77716.83993,10.4024,5.04821,11.7822,10.72128l39.31598,161.6061-31.1459,10.8707h-.00003Z" fill="#e0e1e2"/><circle cx="269.06998" cy="55.22682" r="34.85209" fill="#fdadb0"/><path d="m285.65121,10.07328c7.67664,2.69811,12.06934,4.24203,16.09317,8.11845,6.7966,6.5479,7.9184,15.29825,8.96057,23.4287.8154,6.36049,1.86963,14.5842-1.85501,23.97997-1.27109,3.20641-7.43674,17.49225-19.23843,19.29762-2.31772.3545-7.75916.44773-6.19073-.71022,14.51544-10.71641,20.71027-17.18593,20.20239-33.70173-.31549-10.26221-15.99649-21.34199-25.30756-23.33377-3.92233-.83893-9.14426-.07252-12.88876,3.00152-7.82565,6.42446-7.49179,32.99092-15.74361,38.5444-3.39352,2.2839-1.13228-13.79295-3.52356-11.18581-4.71809,5.14422-1.69165,13.02216-.84383,16.02233,4.02164,14.23081,11.60382,15.62369,15.53183,27.77607,4.24091,13.12018-1.09653,25.47273-2.3623,28.40192-2.20163,5.0956-5.98048,13.84068-14.61356,18.03613-10.95815,5.32527-19.59561-1.60928-24.69019,4.33572-2.84799,3.32346-1.30746,6.84323-6.45113,17.1805-1.67912,3.37442-2.51868,5.06184-3.26193,5.00195-3.51727-.2832-9.21196-28.43777-.00171-54.65797,3.86536-11.00368,7.65221-21.78448,17.80276-30.21467,5.36661-4.45687,9.86757-6.0607,11.14871-11.2654,1.83022-7.4356-5.76976-10.60925-7.29326-22.3414-1.04176-8.02364-1.77267-19.49902,1.06029-26.85414,2.67509-6.94578,4.99741-12.97519,11.076-18.44197,1.4599-1.31307,13.24496-10.23845,25.7406-10.49022,5.75281-.11574,9.97934,7.72783,16.64917,10.072h.00006Z" fill="#2f2e43"/><path d="m0,624.38336c0,.66003.53003,1.19,1.19006,1.19h729.28998c.65997,0,1.19-.52997,1.19-1.19,0-.65997-.53003-1.19-1.19-1.19H1.19006c-.66003,0-1.19006.53003-1.19006,1.19Z" fill="#3f3d58"/><path d="m511.84998,179.42564l-.00006.00003c-.68246,17.58109.56134,36.6662,0,56.75516,0,2.42908-1.88406,4.39827-4.2084,4.39827h-47.40747c-1.88519,0-3.48029-1.29544-4.01602-3.08102l-117.039-22.5256c-.14603,1.63275-1.44534,2.91553-3.0455,2.91553h-12.43271v6.61086c0,2.11761-1.64252,3.83424-3.66837,3.83424h-23.67679c-2.02582,0-3.66837-1.71664-3.66837-3.83424v-49.2393c0-1.67003,1.02771-3.07626,2.45358-3.60211-.24634-.4015-.38599-.84505-.38599-1.31267,0-1.79033,2.00568-3.24159,4.47974-3.24159s4.47974,1.45126,4.47974,3.24159c0,.37952-.09491.74217-.26047,1.08054h2.32806v-8.38043c0-1.33923,1.03851-2.42487,2.31995-2.42487h7.07632c1.28146,0,2.31995,1.08563,2.31995,2.42487v8.38043h2.53433c2.02582,0,3.66837,1.71664,3.66837,3.83424v9.49225h12.43271c1.43527,0,2.63058,1.03233,2.96912,2.42239l116.92288-7.14883v-.59972c0-2.42924,1.88416-4.39861,4.2085-4.39861h47.40747c2.32434,0,4.2084,1.96951,4.2084,4.39861v-.00002l.00003.00002Z" fill="#3f3d56"/><path id="uuid-7f43bfa3-be46-4436-8161-33a1b3b19dec-244" d="m287.3429,211.89523c10.76318-1.13242,20.03201,3.71107,20.70233,10.81741.67032,7.10631-7.51099,13.78305-18.27817,14.91438-4.29523.51312-8.64301-.04831-12.67953-1.63736l-45.66046,4.20064-1.37079-22.27231,45.15866-1.77646c3.66113-2.39919,7.81982-3.85522,12.12796-4.24631,0,0,.00003,0,0,0Z" fill="#fdadb0"/><path d="m231.71271,114.05334h-.00005c-11.05269-1.55672-21.42206,5.71055-23.71935,16.63335-8.01482,38.10753-22.39742,119.28123.19211,120.63661,29.53613,1.77217,57.89081-5.3165,57.89081-5.3165l-7.08868-40.75986-23.03818-2.36288,13.55157-63.38637c2.5731-12.03547-5.60107-23.72783-17.78825-25.44434l.00002-.00002Z" fill="#e0e1e2"/></svg>